<svg width="272" height="42" viewBox="0 0 272 42" fill="none" xmlns="http://www.w3.org/2000/svg">
<path d="M11.5286 11.1599L9.84314 17.1116L19.4873 11.1265L13.1805 33.707L19.585 33.713L28.9018 0.360306L11.5286 11.1599Z" fill="#3395FF"/>
<path fill-rule="evenodd" clip-rule="evenodd" d="M48.9271 10.3798C50.1095 11.6667 50.3779 13.5132 49.7312 15.9188C49.2774 17.6108 48.4387 19.0642 47.2169 20.2789C45.9955 21.4937 44.4783 22.3647 42.6671 22.888C44.0881 23.1976 44.8961 24.2339 45.0917 25.997L46.0505 33.8944H40.142L39.1585 25.4247C39.0743 24.7583 38.8005 24.2936 38.3325 24.0311C37.8656 23.7692 37.2277 23.638 36.4165 23.638H32.7999L30.0458 33.8944H24.5311L31.3627 8.45033H42.7136C45.6728 8.45033 47.7446 9.0929 48.9271 10.3798ZM42.6791 18.5815C43.5627 18.0458 44.1581 17.2058 44.4653 16.062C44.7726 14.9183 44.6273 14.0789 44.0318 13.5431C43.4353 13.0067 42.3372 12.7389 40.738 12.7389H35.6533L33.8683 19.3865H38.953C40.5533 19.3865 41.7943 19.1173 42.6791 18.5815Z" fill="white"/>
<path fill-rule="evenodd" clip-rule="evenodd" d="M64.8611 18.3494L65.5515 15.7761V15.7767H70.8862L66.022 33.8949H60.6873L61.4077 31.2149C60.609 32.1432 59.6382 32.8711 58.4952 33.3943C57.3517 33.9187 56.147 34.1806 54.8822 34.1806C53.3069 34.1806 52.0181 33.8006 51.018 33.0376C50.0168 32.2751 49.3662 31.1851 49.0662 29.7674C48.7662 28.3499 48.866 26.7122 49.3651 24.8538C49.8637 22.9952 50.6486 21.3397 51.7192 19.8863C52.7898 18.4335 54.0417 17.3083 55.4728 16.5094C56.904 15.7111 58.3959 15.312 59.9478 15.312C61.2128 15.312 62.2739 15.5864 63.13 16.1341C63.9847 16.6819 64.5622 17.4198 64.8611 18.3494ZM61.0048 28.7128C61.9636 27.8077 62.6732 26.4963 63.1341 24.7817C63.595 23.0664 63.589 21.7496 63.1192 20.8338C62.6498 19.9168 61.7449 19.4575 60.4087 19.4575C59.0714 19.4575 57.9058 19.9341 56.9105 20.8864C55.9139 21.8396 55.1899 23.1618 54.7364 24.8533C54.2813 26.5459 54.2982 27.8376 54.7876 28.7306C55.2743 29.6245 56.1985 30.0706 57.5609 30.0706C58.8969 30.0706 60.0447 29.6184 61.0048 28.7128Z" fill="white"/>
<path d="M90.0693 15.7773H74.565L73.4812 19.8151H82.5042L70.5746 30.1068L69.5567 33.8954H85.5619L86.6469 29.8575H76.9801L89.0901 19.422L90.0693 15.7773Z" fill="white"/>
<path fill-rule="evenodd" clip-rule="evenodd" d="M102.134 15.312C104.044 15.312 105.612 15.6932 106.839 16.4551C108.066 17.2182 108.875 18.3141 109.269 19.743C109.66 21.1726 109.601 22.8401 109.089 24.7464C108.577 26.6526 107.741 28.3194 106.582 29.749C105.423 31.179 104.023 32.2744 102.388 33.0369C100.751 33.8001 98.9777 34.1801 97.0679 34.1801C95.1341 34.1801 93.548 33.8001 92.3083 33.0369C91.0672 32.2744 90.2525 31.1786 89.8608 29.749C89.4681 28.3194 89.5273 26.6526 90.0397 24.7464C90.5514 22.8401 91.3876 21.1726 92.5473 19.743C93.7064 18.3136 95.1101 17.2182 96.7594 16.4551C98.4087 15.6932 100.2 15.312 102.134 15.312ZM101.587 28.7494C102.528 27.8681 103.238 26.5328 103.718 24.7466C104.192 22.9836 104.196 21.6556 103.732 20.7623C103.268 19.8686 102.366 19.4217 101.03 19.4217C99.6689 19.4217 98.5116 19.8686 97.555 20.7623C96.5998 21.6556 95.8854 22.9836 95.4114 24.7466C94.4584 28.297 95.3778 30.0708 98.1714 30.0708C99.5074 30.0708 100.646 29.6305 101.587 28.7494Z" fill="white"/>
<path fill-rule="evenodd" clip-rule="evenodd" d="M164.363 18.3494L165.054 15.7761V15.7767H170.389L165.524 33.8949H160.189L160.91 31.2149C160.111 32.1432 159.141 32.8711 157.998 33.3943C156.854 33.9187 155.649 34.1806 154.385 34.1806C152.809 34.1806 151.521 33.8006 150.52 33.0376C149.518 32.2751 148.869 31.1851 148.569 29.7674C148.27 28.3499 148.368 26.7122 148.868 24.8538C149.366 22.9952 150.151 21.3397 151.222 19.8863C152.292 18.4335 153.544 17.3083 154.975 16.5094C156.406 15.7111 157.898 15.312 159.451 15.312C160.715 15.312 161.776 15.5864 162.632 16.1341C163.486 16.6819 164.065 17.4198 164.363 18.3494ZM160.929 29.3049C161.949 28.3418 162.705 26.9466 163.194 25.1222C163.685 23.2973 163.679 21.8963 163.18 20.9218C162.68 19.9462 161.717 19.4575 160.296 19.4575C158.872 19.4575 157.632 19.9646 156.573 20.9777C155.513 21.9921 154.742 23.3988 154.26 25.1984C153.776 26.9993 153.793 28.3736 154.314 29.324C154.832 30.2749 155.817 30.7496 157.264 30.7496C158.685 30.7496 159.91 30.2685 160.929 29.3049Z" fill="white"/>
<path d="M125.861 20.6388L127.221 15.7072C126.759 15.4691 126.147 15.3492 125.383 15.3492C124.165 15.3492 122.992 15.6529 121.862 16.2607C120.892 16.7823 120.065 17.5143 119.368 18.4314L120.075 15.7758L118.53 15.7781H114.741L109.839 33.8962H115.248L117.791 24.4268C118.161 23.045 118.825 21.9676 119.787 21.1931C120.745 20.4187 121.942 20.0315 123.375 20.0315C124.258 20.0315 125.086 20.2343 125.861 20.6388Z" fill="white"/>
<path fill-rule="evenodd" clip-rule="evenodd" d="M140.863 15.312C142.413 15.312 143.691 15.7105 144.695 16.5088C145.697 17.3076 146.345 18.4329 146.635 19.8856C146.924 21.3397 146.821 22.9946 146.321 24.8531C145.823 26.7122 145.049 28.3506 144 29.7669C142.952 31.1844 141.715 32.2751 140.294 33.0369C138.871 33.8001 137.372 34.1801 135.797 34.1801C134.531 34.1801 133.468 33.9176 132.606 33.3938C131.743 32.8705 131.174 32.1432 130.9 31.2149L128.108 41.6134H122.7L128.246 20.9579C128.254 20.9286 128.261 20.9004 128.268 20.8722C128.275 20.844 128.282 20.8159 128.29 20.7865L129.635 15.7761H133.869V15.7738H134.914L134.006 18.6595L133.988 18.7783C134.753 17.7056 135.749 16.8613 136.98 16.2409C138.206 15.6216 139.502 15.312 140.863 15.312ZM138.8 28.7309C139.755 27.8377 140.46 26.546 140.915 24.8535C141.369 23.1626 141.359 21.84 140.887 20.8865C140.415 19.9342 139.523 19.457 138.21 19.457C136.873 19.457 135.717 19.9171 134.743 20.8335C133.768 21.7499 133.052 23.0659 132.591 24.7818C132.13 26.4977 132.142 27.8079 132.628 28.713C133.113 29.6186 134.024 30.0709 135.361 30.0709C136.697 30.0709 137.842 29.6246 138.8 28.7309Z" fill="white"/>
<path d="M192.781 15.782L192.786 15.7773H189.509C189.404 15.7773 189.312 15.7803 189.217 15.782H187.516L186.647 16.9908C186.577 17.0821 186.507 17.1734 186.433 17.2802L186.339 17.4204L179.43 27.023L177.998 15.7779H172.339L175.204 32.8657L168.877 41.6151H169.056H172.288H174.515L176.047 39.447C176.094 39.3825 176.132 39.3295 176.181 39.2615L177.969 36.7294L178.022 36.6567L186.029 25.3267L192.776 15.791L192.786 15.7838H192.781V15.782Z" fill="white"/>
<path d="M2.81779 24.3446L0.313782 33.713H12.7116C12.7116 33.713 17.7825 14.6596 17.7843 14.6543C17.779 14.6567 2.81779 24.3446 2.81779 24.3446Z" fill="white"/>
<path d="M193.077 33.8528L199.906 8.64597H211.534C214.59 8.64597 216.725 9.29502 217.939 10.5931C219.158 11.8676 219.448 13.685 218.809 16.0452C218.201 18.2873 216.905 20.0929 214.92 21.4618C212.942 22.8071 210.51 23.4798 207.625 23.4798L210.795 22.8779C211.7 22.8779 212.437 23.1375 213.005 23.6568C213.598 24.176 213.959 24.9667 214.086 26.0288L215.121 33.8528H209.069L208.004 25.4623C207.921 24.7779 207.618 24.3176 207.095 24.0816C206.578 23.822 205.941 23.6922 205.183 23.6922H201.478L198.725 33.8528H193.077ZM202.583 19.4792H207.755C209.393 19.4792 210.665 19.2078 211.57 18.665C212.475 18.1221 213.078 17.2961 213.379 16.1868C213.686 15.0539 213.53 14.2278 212.913 13.7086C212.326 13.1657 211.202 12.8943 209.539 12.8943H204.367L202.583 19.4792Z" fill="#3395FF"/>
<path d="M218.679 33.8528L223.542 15.9035H229.081L224.218 33.8528H218.679ZM225.605 7.47768H231.584L230.222 12.5049H224.243L225.605 7.47768Z" fill="#3395FF"/>
<path d="M228.268 33.8528L229.284 30.1001L242.808 18.7712L242.831 19.9041H232.194L233.278 15.9035H249.16L248.181 19.5146L234.464 31.0206L234.56 29.8523H245.747L244.663 33.8528H228.268Z" fill="#3395FF"/>
<path d="M264.534 31.941C263.444 32.6255 262.197 33.1683 260.792 33.5696C259.393 33.9472 258.034 34.136 256.714 34.136C254.635 34.136 252.94 33.7584 251.629 33.0031C250.342 32.2478 249.483 31.174 249.054 29.7815C248.624 28.3889 248.668 26.7368 249.186 24.8251C249.685 22.9841 250.518 21.3556 251.684 19.9395C252.85 18.5234 254.211 17.4259 255.767 16.647C257.354 15.8445 259.052 15.4433 260.861 15.4433C262.597 15.4433 263.999 15.8209 265.066 16.5762C266.139 17.3079 266.833 18.3581 267.147 19.7271C267.467 21.0724 267.374 22.6773 266.869 24.5418L266.658 25.3207H253.93L254.723 22.6655H264.076L262.348 23.763C262.782 22.2525 262.783 21.1196 262.352 20.3643C261.952 19.5854 261.165 19.196 259.991 19.196C258.72 19.196 257.608 19.6444 256.656 20.5413C255.734 21.4146 255.044 22.7009 254.583 24.4002C254.04 26.4064 254.05 27.8579 254.614 28.7548C255.202 29.6516 256.34 30.1001 258.027 30.1001C259.005 30.1001 260.013 29.9467 261.05 29.6398C262.086 29.333 263.085 28.8964 264.045 28.3299L264.534 31.941Z" fill="#3395FF"/>
</svg>
