<svg width="96" height="105" viewBox="0 0 96 105" fill="none" xmlns="http://www.w3.org/2000/svg">
<circle opacity="0.4" cx="47.7315" cy="48.5643" r="47.7315" fill="#6B0034"/>
<circle cx="47.7315" cy="48.5643" r="30.0829" fill="#9F386A"/>
<path d="M75.3739 60.5807V14.7955C75.3739 14.372 74.9079 13.9201 74.4844 13.9201H29.6825C29.2591 13.9201 29.0388 14.3724 29.0388 14.7955V69.0923C29.0388 69.5158 29.2591 69.7497 29.6825 69.7497H68.9208C71.5638 67.0915 73.8547 64.0585 75.3739 60.5807Z" fill="#FF614A"/>
<path d="M52.0836 72.3995C49.6969 72.3995 47.7622 74.3342 47.7622 76.7208C47.7622 77.5112 47.978 78.2495 48.3483 78.8868C51.1177 78.7801 53.7942 78.3126 56.3278 77.5195C56.3764 77.2605 56.4045 76.9939 56.4045 76.7208C56.4049 74.3342 54.4698 72.3995 52.0836 72.3995Z" fill="#FF614A"/>
<path d="M69.2974 33.7112C69.2974 34.3173 68.8059 34.8088 68.1998 34.8088H35.4534C34.8472 34.8088 34.3558 34.3173 34.3558 33.7112V33.6276C34.3558 33.0214 34.8472 32.53 35.4534 32.53H68.1998C68.8059 32.53 69.2974 33.0214 69.2974 33.6276V33.7112Z" fill="#FF8741"/>
<path d="M50.3076 46.2444C50.3076 46.8505 49.8161 47.342 49.21 47.342H35.4534C34.8472 47.342 34.3558 46.8505 34.3558 46.2444V46.1608C34.3558 45.5546 34.8472 45.0632 35.4534 45.0632H49.21C49.8161 45.0632 50.3076 45.5546 50.3076 46.1608V46.2444Z" fill="#FE8A44"/>
<path d="M50.3076 51.1816C50.3076 51.7878 49.8161 52.2793 49.21 52.2793H35.4534C34.8472 52.2793 34.3558 51.7878 34.3558 51.1816V51.0981C34.3558 50.4919 34.8472 50.0005 35.4534 50.0005H49.21C49.8161 50.0005 50.3076 50.4919 50.3076 51.0981V51.1816Z" fill="#FE8A44"/>
<path d="M50.3076 56.1191C50.3076 56.7253 49.8161 57.2168 49.21 57.2168H35.4534C34.8472 57.2168 34.3558 56.7253 34.3558 56.1191V56.0356C34.3558 55.4294 34.8472 54.938 35.4534 54.938H49.21C49.8161 54.938 50.3076 55.4294 50.3076 56.0356V56.1191Z" fill="#FE8A44"/>
<path d="M69.6771 23.4568C69.6771 24.0629 69.1857 24.5544 68.5795 24.5544H35.4533C34.8472 24.5544 34.3557 24.0629 34.3557 23.4568V23.3732C34.3557 22.767 34.8472 22.2756 35.4533 22.2756H68.5795C69.1857 22.2756 69.6771 22.767 69.6771 23.3732V23.4568Z" fill="#FF8741"/>
<path d="M60.5619 25.6936C60.5619 26.7422 59.7116 27.5926 58.6629 27.5926H55.6246C54.5759 27.5926 53.7256 26.7422 53.7256 25.6936V21.136C53.7256 20.0874 54.5759 19.2371 55.6246 19.2371H58.6629C59.7116 19.2371 60.5619 20.0874 60.5619 21.136V25.6936Z" fill="#FFAE38"/>
<path d="M47.6262 35.9482C47.6262 36.9968 46.7758 37.8472 45.7272 37.8472H42.6888C41.6402 37.8472 40.7899 36.9968 40.7899 35.9482V31.3907C40.7899 30.3421 41.6402 29.4917 42.6888 29.4917H45.7272C46.7758 29.4917 47.6262 30.3421 47.6262 31.3907V35.9482Z" fill="#FFAE38"/>
<path d="M60.9418 51.6288V43.9432C56.764 43.9725 53.3914 47.3356 53.3914 51.483C53.3914 55.6486 56.7374 59.0253 60.903 59.0253C63.6387 59.0253 66.0728 57.5642 67.3952 55.3846L60.9418 51.6288Z" fill="#FFAE38"/>
<path opacity="0.5" d="M63.2545 42.5477C63.2373 42.5477 63.3024 42.5503 63.3024 42.5503V50.0926L69.4222 53.7786C70.0836 52.6605 70.4715 51.353 70.4715 49.9497C70.4712 45.8618 67.24 42.5477 63.2545 42.5477Z" fill="#FFAE38"/>
<path d="M24.2378 76.2644C25.8023 78.8207 28.476 80.3759 32.1729 80.8975C32.2222 80.9045 32.2617 80.9101 32.311 80.9171C38.9132 81.7993 45.8803 78.2421 50.5551 75.0995C54.2841 72.5919 57.2074 69.9508 58.5613 68.6451C57.868 67.9386 57.0722 67.5266 56.1454 67.396C54.0063 67.0941 51.927 68.4071 51.9143 68.4253C51.8918 68.4421 51.8594 68.4575 51.8368 68.4742L47.473 70.9221C47.0255 71.1685 46.4846 71.1517 46.0536 70.8613C45.631 70.5821 45.411 70.0821 45.4726 69.5818L48.0624 50.6062L49.0093 44.0032C49.0107 43.9934 49.0135 43.9739 49.0149 43.9641C49.1396 42.8837 48.3829 41.9187 47.2983 41.7656C46.1941 41.6098 45.1793 42.3746 45.0236 43.4606C45.0166 43.5095 45.0081 43.5682 44.9912 43.6157L41.7369 55.7211C41.5908 56.2494 41.1432 56.6351 40.601 56.6984C39.8647 56.784 39.1126 56.8374 38.3115 56.8842C35.1036 57.09 31.1229 57.3563 23.7766 60.3311C23.1163 62.5533 20.9437 70.8994 24.2378 76.2644Z" fill="white"/>
<circle cx="16.4453" cy="46.9598" r="2.80773" fill="white"/>
<circle cx="86.6387" cy="77.8449" r="1.60442" fill="white"/>
<circle cx="6.41768" cy="24.0969" r="1.60442" fill="white"/>
<circle cx="22.4619" cy="102.713" r="1.60442" fill="white"/>
</svg>
