<svg width="98" height="114" viewBox="0 0 98 114" fill="none" xmlns="http://www.w3.org/2000/svg">
<circle opacity="0.4" cx="47.7315" cy="47.7315" r="47.7315" fill="#6B0034"/>
<circle cx="47.7315" cy="47.7315" r="30.0829" fill="#9F386A"/>
<path d="M85.0343 64.7386V18.6457C85.0343 17.0867 83.6472 15.7138 82.0882 15.7138H48.1327V15.8796C31.0134 15.8796 17.3131 29.596 17.3131 46.583C17.3131 54.6663 20.374 62.1258 25.4732 67.4518H48.0095H70.5457H82.0882C83.6472 67.4522 85.0343 66.2976 85.0343 64.7386Z" fill="#FF614A"/>
<path d="M47.8722 67.7445C59.3996 67.7445 68.7444 58.3997 68.7444 46.8723C68.7444 35.3448 59.3996 26 47.8722 26C36.3448 26 27 35.3448 27 46.8723C27 58.3997 36.3448 67.7445 47.8722 67.7445Z" fill="#FF8741"/>
<path d="M59.4494 19.9529C59.4494 24.1399 62.8435 27.5615 67.0309 27.5615C71.2183 27.5615 74.6125 24.1262 74.6125 19.9392C74.6125 18.3916 74.1465 16.8547 73.3506 15.7134H60.7116C59.9154 16.855 59.4494 18.4053 59.4494 19.9529Z" fill="#EC9B26"/>
<path d="M68.8843 22.2991C68.5682 22.6179 68.1425 22.8226 67.6065 22.9128V23.8692H66.574V22.9466C65.7953 22.8732 65.1717 22.6533 64.7034 22.2866L65.1352 21.3385C65.5978 21.6771 66.1084 21.8719 66.6668 21.9225V20.3989C66.283 20.2973 65.9615 20.1874 65.7021 20.0687C65.4426 19.9504 65.2239 19.7765 65.0462 19.5483C64.8685 19.3196 64.7795 19.0164 64.7795 18.6383C64.7795 18.1814 64.9446 17.7876 65.2748 17.4578C65.605 17.1276 66.038 16.9176 66.574 16.827V15.8794H67.6065V16.8187C67.9279 16.8639 68.2326 16.9416 68.5206 17.0515C68.8082 17.1615 69.0426 17.2984 69.2233 17.462L68.7915 18.41C68.3852 18.1167 67.9622 17.9307 67.522 17.8515V19.4258C67.8944 19.5159 68.2075 19.619 68.4616 19.7347C68.7154 19.8503 68.9285 20.0211 69.1008 20.2467C69.2727 20.4723 69.3591 20.7687 69.3591 21.1354C69.3583 21.5927 69.2001 21.9807 68.8843 22.2991ZM66.2479 18.9308C66.3465 19.0297 66.4861 19.1127 66.6668 19.1808V17.8774C66.4861 17.928 66.3465 18.0117 66.2479 18.127C66.149 18.2426 66.0999 18.3853 66.0999 18.5546C66.0999 18.7067 66.149 18.8323 66.2479 18.9308ZM68.0379 21.1948C68.0379 21.065 67.9941 20.9566 67.9066 20.8691C67.8191 20.7816 67.6905 20.704 67.5216 20.6363V21.8552C67.8655 21.7536 68.0379 21.5334 68.0379 21.1948Z" fill="#FF614A"/>
<path d="M83.0699 43.3935C77.0762 43.3935 72.1866 48.2523 72.1866 54.246C72.1866 60.2397 77.0302 65.0985 83.0238 65.0985C83.6698 65.0985 84.3553 65.0388 84.9701 64.9308C84.9743 64.8668 85.0336 64.8029 85.0336 64.7383V43.5628C84.2728 43.454 83.7193 43.3935 83.0699 43.3935Z" fill="#EC9B26"/>
<path d="M85.0342 48.8111V47.2894H78.1865V49.1916H80.4812C81.7971 49.1916 82.7155 49.572 82.8764 50.7133H78.1865V52.235H82.8954C82.7155 53.3763 81.6081 54.1372 80.046 54.1372H78.1869V55.264L82.6683 60.9849H85.0346V60.3724L81.201 55.6589H81.3429C82.9734 55.6589 84.6538 54.6747 85.0342 53.3432V50.1822C84.6538 49.7508 84.6538 49.37 84.2733 49.1295V48.8111H85.0342Z" fill="#FF614A"/>
<circle cx="95.5018" cy="18.0092" r="1.60442" transform="rotate(-75 95.5018 18.0092)" fill="white"/>
<circle cx="19.6136" cy="85.3949" r="1.60442" transform="rotate(-75 19.6136 85.3949)" fill="white"/>
<circle cx="77.3727" cy="111.868" r="1.60442" transform="rotate(-75 77.3727 111.868)" fill="white"/>
<path d="M60.9679 99.279C67.1706 99.279 72.1989 94.474 72.1989 88.5467C72.1989 82.6195 67.1706 77.8145 60.9679 77.8145C54.7653 77.8145 49.737 82.6195 49.737 88.5467C49.737 94.474 54.7653 99.279 60.9679 99.279Z" fill="#FF614A"/>
<path d="M63.1576 94.5709H60.5114L56.1929 89.4633V88.5564H58.0348C59.5101 88.5564 60.5563 87.9407 60.7261 86.9839H56.2021V85.5865H60.7082C60.5563 84.6463 59.6891 84.0558 58.446 84.0558H56.2017V82.5667H65.4732V83.956H61.7985V84.0725C62.3262 84.3885 62.7282 84.9793 62.8177 85.5865H65.4732V86.9839H62.8535C62.6566 88.5564 61.1281 89.7625 59.2592 89.8458H59.1252L63.1576 94.5709Z" fill="#FFAE38"/>
<path d="M45.8906 42.7713L44.6364 47.054L51.8128 42.7472L47.1198 58.9957L51.8855 59.0001L58.8182 35.0001L45.8906 42.7713Z" fill="white"/>
<path d="M38.8763 52.0288L37 59H46.2899C46.2899 59 50.0896 44.8221 50.0909 44.8182C50.087 44.8199 38.8763 52.0288 38.8763 52.0288Z" fill="white"/>
</svg>
