<svg width="96" height="112" viewBox="0 0 96 112" fill="none" xmlns="http://www.w3.org/2000/svg">
<circle opacity="0.4" cx="47.8664" cy="53.378" r="47.7315" fill="#6B0034"/>
<circle cx="47.8664" cy="53.378" r="30.0829" fill="#9F386A"/>
<path d="M44.036 48.1812C49.9725 48.1812 54.7849 43.3688 54.7849 37.4324C54.7849 31.496 49.9725 26.6836 44.036 26.6836C38.0996 26.6836 33.2872 31.496 33.2872 37.4324C33.2872 43.3688 38.0996 48.1812 44.036 48.1812Z" fill="#FF614A"/>
<path d="M46.2345 43.5328H43.7318L39.6479 38.3411V37.4195H41.3897C42.7847 37.4195 43.7739 36.7937 43.9346 35.8216H39.6562V34.4012H43.9175C43.7739 33.4458 42.9537 32.8456 41.7783 32.8456H39.6562V31.332H48.4242V32.7442H44.9494V32.8627C45.4482 33.1841 45.8288 33.7843 45.9131 34.4017H48.4242V35.8221H45.9469C45.7607 37.4199 44.3148 38.6463 42.548 38.7305H42.4211L46.2345 43.5328Z" fill="#FF8741"/>
<path d="M55.1512 72.402C64.489 72.402 72.0587 64.8322 72.0587 55.4944C72.0587 46.1566 64.489 38.5869 55.1512 38.5869C45.8134 38.5869 38.2437 46.1566 38.2437 55.4944C38.2437 64.8322 45.8134 72.402 55.1512 72.402Z" fill="#9F386A"/>
<path opacity="0.5" d="M77.1471 61.6485C75.1925 59.6618 74.0539 58.6253 70.5246 60.3295C69.8855 60.7062 69.1177 61.0752 68.4349 61.4284C68.428 61.4326 68.3694 61.4367 68.3626 61.4409L68.3372 61.4394C65.8232 62.739 63.0885 64.8494 60.2977 65.5592C55.9513 66.6644 47.5385 64.3177 47.4206 62.0425C47.3935 61.5248 50.0475 62.2123 53.1074 62.4841C53.3407 62.4947 53.6111 62.5148 53.9284 62.5462C54.3163 62.5692 54.7063 62.5824 55.0959 62.5851C60.2791 62.3983 60.3843 58.0797 60.3524 57.9197C60.3384 57.9122 60.3253 57.9031 60.311 57.8963C60.2537 57.8762 60.1084 57.8301 59.7162 57.7132C57.4075 57.1748 47.057 53.6279 42.6446 53.7841C41.1275 53.8378 38.0647 54.5074 35.5051 55.1291C32.5567 55.8233 30.7835 56.2215 29.8167 56.4333C30.7366 63.4556 33.8148 69.584 38.2044 73.953C45.6966 74.7732 58.0867 75.8887 59.9442 75.2489C61.2225 74.8083 63.5035 73.5453 65.7346 71.9927C72.1805 67.381 77.1471 61.6579 77.1471 61.6492C77.1471 61.6488 77.1471 61.6489 77.1471 61.6485Z" fill="white"/>
<path d="M55.1511 68.1433C62.137 68.1433 67.8002 62.4801 67.8002 55.4943C67.8002 48.5084 62.137 42.8452 55.1511 42.8452C48.1653 42.8452 42.5021 48.5084 42.5021 55.4943C42.5021 62.4801 48.1653 68.1433 55.1511 68.1433Z" fill="#FF614A"/>
<path d="M57.7382 62.6739H54.7932L49.9872 56.5648V55.4801H52.0371C53.6789 55.4801 54.8432 54.7437 55.0322 53.5993H49.9974V51.9279H55.0122C54.8432 50.8034 53.878 50.0971 52.4947 50.0971H49.997V48.3159H60.3151V49.9776H56.2256V50.1171C56.8129 50.495 57.2603 51.2017 57.3599 51.9279H60.3151V53.5993H57.3997C57.1806 55.4801 55.4795 56.9227 53.3996 57.0223H53.2505L57.7382 62.6739Z" fill="#FF8741"/>
<path d="M68.636 64.0972C69.3992 63.7633 70.1999 63.4131 70.9171 63.0508C73.12 62.161 74.5325 62.1528 75.6428 62.7193C77.5322 63.6833 77.1689 65.8191 75.6105 67.2581C73.301 69.3907 69.4775 72.6589 65.0368 75.43C62.5171 76.9561 60.0722 78.1741 58.6536 78.5579C55.9976 79.2761 34.438 75.4742 29.7276 74.4677C29.245 74.3646 28.7869 74.1849 28.3514 73.9528L28.0072 73.7692C27.7066 73.6089 27.43 73.4071 27.1857 73.1696C26.4827 72.4865 26.0861 71.548 26.0861 70.5678V66.2135L26.0067 63.2818C25.8925 59.0615 28.9843 55.3913 33.1505 54.708C35.9759 54.2243 39.3525 53.7265 41.009 53.7835C45.8277 53.9494 56.9099 58.6155 59.3961 59.3799C59.8168 59.5376 59.9725 59.5993 60.0339 59.6255C60.0625 59.6425 60.0793 59.6705 60.0783 59.7037C60.0612 60.2391 59.4938 64.5341 54.0835 64.3509C53.6587 64.3181 53.2339 64.274 52.8125 64.2189C52.4686 64.1604 52.174 64.1178 51.9204 64.0885C48.6001 63.5576 45.7445 62.6039 45.7445 63.1715C45.7445 65.6662 54.779 68.8725 59.5793 67.9964C62.6593 67.4342 65.7508 65.3386 68.5633 64.1101C68.5669 64.1085 68.5709 64.108 68.5749 64.1085C68.5796 64.1092 68.5846 64.1084 68.5893 64.1073C68.6025 64.1041 68.6273 64.1014 68.6336 64.0983L68.636 64.0972Z" fill="white"/>
<path d="M63.1083 31.3175C71.3047 31.3175 77.9492 24.4934 77.9492 16.0755C77.9492 7.65757 71.3047 0.833496 63.1083 0.833496C54.9119 0.833496 48.2674 7.65757 48.2674 16.0755C48.2674 24.4934 54.9119 31.3175 63.1083 31.3175Z" fill="#FF614A"/>
<path d="M66.0017 24.631H62.5049L56.7983 17.3771V16.0892H59.2323C61.1817 16.0892 62.5642 15.2148 62.7886 13.8559H56.8104V11.8713H62.7649C62.5642 10.5361 61.4182 9.69747 59.7756 9.69747H56.8099V7.58252H69.0615V9.55562H64.2057V9.72116C64.903 10.1699 65.4343 11.009 65.5525 11.8713H69.0615V13.8559H65.5997C65.3396 16.0891 63.3198 17.8021 60.8501 17.9204H60.6731L66.0017 24.631Z" fill="#FFAE38"/>
<path d="M21.7945 111.538C27.9972 111.538 33.0255 106.733 33.0255 100.806C33.0255 94.8787 27.9972 90.0737 21.7945 90.0737C15.5919 90.0737 10.5636 94.8787 10.5636 100.806C10.5636 106.733 15.5919 111.538 21.7945 111.538Z" fill="#FF614A"/>
<path d="M23.9842 106.83H21.3379L17.0195 101.723V100.816H18.8614C20.3366 100.816 21.3829 100.2 21.5526 99.2434H17.0286V97.846H21.5347C21.3828 96.9059 20.5156 96.3154 19.2725 96.3154H17.0282V94.8262H26.2997V96.2155H22.625V96.332C23.1527 96.648 23.5548 97.2389 23.6442 97.846H26.2997V99.2434H23.68C23.4832 100.816 21.9546 102.022 20.0857 102.105H19.9517L23.9842 106.83Z" fill="#FFAE38"/>
<circle cx="73.1921" cy="36.7844" r="2.80773" transform="rotate(109.514 73.1921 36.7844)" fill="white"/>
<circle cx="60.0574" cy="99.2618" r="2.32305" transform="rotate(109.514 60.0574 99.2618)" fill="white"/>
<path d="M1.51226 41.7886C0.677064 41.4926 0.239948 40.5756 0.535937 39.7404C0.831927 38.9052 1.74894 38.4681 2.58414 38.7641C3.41933 39.0601 3.85645 39.9771 3.56046 40.8123C3.26447 41.6475 2.34746 42.0846 1.51226 41.7886Z" fill="white"/>
</svg>
